<svg width="12" height="30" viewBox="0 0 12 30" fill="none" xmlns="http://www.w3.org/2000/svg">
<path d="M10.7276 28.728C11.1025 28.353 11.3131 27.8444 11.3131 27.314C11.3131 26.7837 11.1025 26.2751 10.7276 25.9L4.82757 15L10.7276 4.10003C11.0919 3.72282 11.2935 3.21762 11.2889 2.69322C11.2844 2.16883 11.074 1.6672 10.7032 1.29639C10.3324 0.925571 9.83077 0.715235 9.30637 0.710678C8.78198 0.706121 8.27678 0.907709 7.89957 1.27203L0.585573 13.586C0.210631 13.9611 0 14.4697 0 15C0 15.5304 0.210631 16.039 0.585573 16.414L7.89957 28.728C8.27463 29.103 8.78324 29.3136 9.31357 29.3136C9.8439 29.3136 10.3525 29.103 10.7276 28.728Z" fill="black"/>
</svg>
