<svg width="56" height="56" viewBox="0 0 56 56" fill="none" xmlns="http://www.w3.org/2000/svg">
<path d="M13.9997 16.3333V42C13.9997 43.2377 14.4913 44.4247 15.3665 45.2998C16.2417 46.175 17.4287 46.6667 18.6663 46.6667H37.333C38.5707 46.6667 39.7577 46.175 40.6328 45.2998C41.508 44.4247 41.9997 43.2377 41.9997 42V16.3333M20.9997 16.3333C20.9997 14.4768 21.7372 12.6963 23.0499 11.3836C24.3627 10.0708 26.1432 9.33333 27.9997 9.33333V9.33333C29.8562 9.33333 31.6367 10.0708 32.9494 11.3836C34.2622 12.6963 34.9997 14.4768 34.9997 16.3333V16.3333H20.9997ZM20.9997 16.3333H34.9997H20.9997ZM20.9997 16.3333H13.9997H20.9997ZM34.9997 16.3333H41.9997H34.9997ZM46.6663 16.3333H41.9997H46.6663ZM9.33301 16.3333H13.9997H9.33301Z" stroke="white" stroke-width="3.5" stroke-linecap="round" stroke-linejoin="round"/>
</svg>
