<svg width="32" height="32" viewBox="0 0 32 32" fill="none" xmlns="http://www.w3.org/2000/svg">
<path d="M4 12C4 11.2927 4.28095 10.6145 4.78105 10.1144C5.28115 9.61426 5.95942 9.33331 6.66667 9.33331H7.90667C8.34558 9.33338 8.77772 9.22511 9.16475 9.0181C9.55179 8.81109 9.88174 8.51176 10.1253 8.14665L11.208 6.51998C11.4516 6.15487 11.7815 5.85553 12.1686 5.64853C12.5556 5.44152 12.9878 5.33325 13.4267 5.33331H18.5733C19.0122 5.33325 19.4444 5.44152 19.8314 5.64853C20.2185 5.85553 20.5484 6.15487 20.792 6.51998L21.8747 8.14665C22.1183 8.51176 22.4482 8.81109 22.8352 9.0181C23.2223 9.22511 23.6544 9.33338 24.0933 9.33331H25.3333C26.0406 9.33331 26.7189 9.61426 27.219 10.1144C27.719 10.6145 28 11.2927 28 12V24C28 24.7072 27.719 25.3855 27.219 25.8856C26.7189 26.3857 26.0406 26.6666 25.3333 26.6666H6.66667C5.95942 26.6666 5.28115 26.3857 4.78105 25.8856C4.28095 25.3855 4 24.7072 4 24V12Z" stroke="black" stroke-width="2" stroke-linecap="round" stroke-linejoin="round"/>
<path d="M20 17.3333C20 18.3942 19.5786 19.4116 18.8284 20.1617C18.0783 20.9119 17.0609 21.3333 16 21.3333C14.9391 21.3333 13.9217 20.9119 13.1716 20.1617C12.4214 19.4116 12 18.3942 12 17.3333C12 16.2724 12.4214 15.255 13.1716 14.5049C13.9217 13.7547 14.9391 13.3333 16 13.3333C17.0609 13.3333 18.0783 13.7547 18.8284 14.5049C19.5786 15.255 20 16.2724 20 17.3333V17.3333Z" stroke="black" stroke-width="2" stroke-linecap="round" stroke-linejoin="round"/>
</svg>
