<svg width="30" height="29" viewBox="0 0 30 29" fill="none" xmlns="http://www.w3.org/2000/svg">
<path fill-rule="evenodd" clip-rule="evenodd" d="M2.54007 28.0809C1.94313 28.6553 0.993559 28.637 0.419144 28.0401C-0.155271 27.4431 -0.13701 26.4936 0.459931 25.9191L12.5867 14.25L0.459931 2.58086C-0.13701 2.00644 -0.155271 1.05687 0.419144 0.459932C0.993559 -0.137009 1.94313 -0.15527 2.54007 0.419145L14.75 12.1683L26.9599 0.419144C27.5569 -0.155272 28.5064 -0.137011 29.0809 0.45993C29.6553 1.05687 29.637 2.00644 29.0401 2.58086L16.9133 14.25L29.0401 25.9191C29.637 26.4936 29.6553 27.4431 29.0809 28.0401C28.5064 28.637 27.5569 28.6553 26.9599 28.0809L14.75 16.3317L2.54007 28.0809Z" fill="#AEAEAE"/>
</svg>
