<svg width="40" height="40" viewBox="0 0 40 40" fill="none" xmlns="http://www.w3.org/2000/svg">
<path fill-rule="evenodd" clip-rule="evenodd" d="M12.1895 29.6072C11.5925 30.1816 10.643 30.1633 10.0686 29.5664C9.49414 28.9694 9.5124 28.0199 10.1093 27.4455L17.587 20.25L10.1093 13.0545C9.5124 12.4801 9.49414 11.5306 10.0686 10.9336C10.643 10.3367 11.5925 10.3184 12.1895 10.8928L19.7503 18.1683L27.3111 10.8928C27.908 10.3184 28.8576 10.3367 29.432 10.9336C30.0064 11.5306 29.9882 12.4801 29.3912 13.0545L21.9136 20.25L29.3912 27.4455C29.9882 28.0199 30.0064 28.9694 29.432 29.5664C28.8576 30.1633 27.908 30.1816 27.3111 29.6072L19.7503 22.3317L12.1895 29.6072Z" fill="black"/>
</svg>
