<svg width="29" height="23" viewBox="0 0 29 23" fill="none" xmlns="http://www.w3.org/2000/svg">
<path fill-rule="evenodd" clip-rule="evenodd" d="M14.4996 22.4C22.3348 22.4 28.8996 18.7072 28.8996 13.6C28.8996 8.49279 22.3348 4.79999 14.4996 4.79999C6.66441 4.79999 0.0996094 8.49279 0.0996094 13.6C0.0996094 18.7072 6.66441 22.4 14.4996 22.4ZM14.4996 7.99999C20.8036 7.99999 25.6996 10.7552 25.6996 13.6C25.6996 16.4448 20.8036 19.2 14.4996 19.2C8.19561 19.2 3.29961 16.4448 3.29961 13.6C3.29961 10.7552 8.19561 7.99999 14.4996 7.99999Z" fill="black"/>
<path d="M12.9001 1.6C12.9001 1.17565 13.0686 0.768687 13.3687 0.468629C13.6687 0.168571 14.0757 0 14.5001 0C14.9244 0 15.3314 0.168571 15.6314 0.468629C15.9315 0.768687 16.1001 1.17565 16.1001 1.6V6.4C16.1001 6.82435 15.9315 7.23131 15.6314 7.53137C15.3314 7.83143 14.9244 8 14.5001 8C14.0757 8 13.6687 7.83143 13.3687 7.53137C13.0686 7.23131 12.9001 6.82435 12.9001 6.4V1.6ZM19.3321 2.0864C19.4274 1.68268 19.6757 1.33175 20.0248 1.10763C20.3738 0.883506 20.7963 0.803705 21.203 0.885057C21.6098 0.966408 21.9691 1.20255 22.2051 1.54369C22.4411 1.88482 22.5354 2.30428 22.4681 2.7136L21.6681 6.7136C21.6332 6.9255 21.5561 7.12822 21.4412 7.30968C21.3264 7.49114 21.1762 7.64762 20.9996 7.7698C20.8229 7.89198 20.6236 7.97735 20.4133 8.02084C20.203 8.06432 19.986 8.06503 19.7755 8.02291C19.5649 7.9808 19.3649 7.89672 19.1875 7.7757C19.0101 7.65467 18.8589 7.49917 18.7429 7.31847C18.6269 7.13776 18.5484 6.93555 18.5122 6.72388C18.476 6.5122 18.4827 6.2954 18.5321 6.0864L19.3321 2.0864V2.0864ZM9.66805 2.0864C9.57275 1.68268 9.32438 1.33175 8.97533 1.10763C8.62628 0.883506 8.20382 0.803705 7.79706 0.885057C7.3903 0.966408 7.03104 1.20255 6.79504 1.54369C6.55903 1.88482 6.46474 2.30428 6.53205 2.7136L7.33205 6.7136C7.42735 7.11732 7.67572 7.46824 8.02477 7.69237C8.37383 7.91649 8.79628 7.99629 9.20304 7.91494C9.6098 7.83359 9.96906 7.59745 10.2051 7.25631C10.4411 6.91518 10.5354 6.49572 10.4681 6.0864L9.66805 2.0864V2.0864ZM3.07125 3.9776C2.96646 3.79099 2.82529 3.6273 2.65611 3.49622C2.48693 3.36514 2.29317 3.26934 2.0863 3.21448C1.87943 3.15962 1.66365 3.14682 1.45175 3.17684C1.23985 3.20686 1.03612 3.27909 0.852626 3.38925C0.669133 3.49941 0.509607 3.64526 0.383489 3.81817C0.25737 3.99108 0.167224 4.18754 0.118387 4.39591C0.0695487 4.60429 0.0630116 4.82034 0.0991625 5.03129C0.135313 5.24223 0.213418 5.44378 0.328851 5.624L2.72885 9.624C2.83502 9.80813 2.97682 9.96926 3.14595 10.098C3.31509 10.2267 3.50818 10.3204 3.71394 10.3737C3.9197 10.427 4.13402 10.4387 4.34437 10.4082C4.55471 10.3777 4.75688 10.3057 4.93907 10.1962C5.12125 10.0867 5.27979 9.94203 5.40544 9.77059C5.53108 9.59916 5.62131 9.40441 5.67086 9.19772C5.7204 8.99103 5.72827 8.77654 5.69399 8.56677C5.65972 8.35701 5.584 8.15618 5.47125 7.976L3.07125 3.976V3.9776ZM25.9273 3.9776C26.1456 3.61351 26.4996 3.35106 26.9114 3.24799C27.3233 3.14492 27.7592 3.20967 28.1233 3.428C28.4873 3.64633 28.7498 4.00034 28.8529 4.41217C28.9559 4.824 28.8912 5.25991 28.6729 5.624L26.2729 9.624C26.0543 9.98809 25.7001 10.2505 25.2881 10.3534C24.8761 10.4563 24.4401 10.3913 24.0761 10.1728C23.712 9.95426 23.4496 9.60004 23.3467 9.18806C23.2438 8.77608 23.3087 8.34009 23.5273 7.976L25.9273 3.976V3.9776Z" fill="black"/>
<path fill-rule="evenodd" clip-rule="evenodd" d="M14.5004 18.4C15.9856 18.4 17.41 17.81 18.4602 16.7598C19.5104 15.7096 20.1004 14.2852 20.1004 12.8C20.1004 11.3148 19.5104 9.89042 18.4602 8.84021C17.41 7.79001 15.9856 7.20001 14.5004 7.20001C13.0152 7.20001 11.5908 7.79001 10.5406 8.84021C9.49039 9.89042 8.90039 11.3148 8.90039 12.8C8.90039 14.2852 9.49039 15.7096 10.5406 16.7598C11.5908 17.81 13.0152 18.4 14.5004 18.4V18.4ZM14.5004 10.4C15.1369 10.4 15.7474 10.6529 16.1974 11.103C16.6475 11.553 16.9004 12.1635 16.9004 12.8C16.9004 13.4365 16.6475 14.047 16.1974 14.4971C15.7474 14.9472 15.1369 15.2 14.5004 15.2C13.8639 15.2 13.2534 14.9472 12.8033 14.4971C12.3532 14.047 12.1004 13.4365 12.1004 12.8C12.1004 12.1635 12.3532 11.553 12.8033 11.103C13.2534 10.6529 13.8639 10.4 14.5004 10.4Z" fill="black"/>
</svg>
