<svg width="48" height="48" viewBox="0 0 48 48" fill="none" xmlns="http://www.w3.org/2000/svg">
<path d="M16.6667 15.75C16.4236 15.75 16.1904 15.8466 16.0185 16.0185C15.8466 16.1904 15.75 16.4236 15.75 16.6667V19.6257C15.75 19.9903 15.6051 20.3401 15.3473 20.5979C15.0894 20.8558 14.7397 21.0007 14.375 21.0007C14.0103 21.0007 13.6606 20.8558 13.4027 20.5979C13.1449 20.3401 13 19.9903 13 19.6257V16.6667C13 15.6942 13.3863 14.7616 14.0739 14.0739C14.7616 13.3863 15.6942 13 16.6667 13H19.6257C19.9903 13 20.3401 13.1449 20.5979 13.4027C20.8558 13.6606 21.0007 14.0103 21.0007 14.375C21.0007 14.7397 20.8558 15.0894 20.5979 15.3473C20.3401 15.6051 19.9903 15.75 19.6257 15.75H16.6667ZM26.9993 14.375C26.9993 14.0103 27.1442 13.6606 27.4021 13.4027C27.6599 13.1449 28.0097 13 28.3743 13H31.3333C32.3058 13 33.2384 13.3863 33.9261 14.0739C34.6137 14.7616 35 15.6942 35 16.6667V19.6257C35 19.9903 34.8551 20.3401 34.5973 20.5979C34.3394 20.8558 33.9897 21.0007 33.625 21.0007C33.2603 21.0007 32.9106 20.8558 32.6527 20.5979C32.3949 20.3401 32.25 19.9903 32.25 19.6257V16.6667C32.25 16.4236 32.1534 16.1904 31.9815 16.0185C31.8096 15.8466 31.5764 15.75 31.3333 15.75H28.3743C28.0097 15.75 27.6599 15.6051 27.4021 15.3473C27.1442 15.0894 26.9993 14.7397 26.9993 14.375ZM14.375 26.9993C14.7397 26.9993 15.0894 27.1442 15.3473 27.4021C15.6051 27.6599 15.75 28.0097 15.75 28.3743V31.3333C15.75 31.5764 15.8466 31.8096 16.0185 31.9815C16.1904 32.1534 16.4236 32.25 16.6667 32.25H19.6257C19.9903 32.25 20.3401 32.3949 20.5979 32.6527C20.8558 32.9106 21.0007 33.2603 21.0007 33.625C21.0007 33.9897 20.8558 34.3394 20.5979 34.5973C20.3401 34.8551 19.9903 35 19.6257 35H16.6667C15.6942 35 14.7616 34.6137 14.0739 33.9261C13.3863 33.2384 13 32.3058 13 31.3333V28.3743C13 28.0097 13.1449 27.6599 13.4027 27.4021C13.6606 27.1442 14.0103 26.9993 14.375 26.9993ZM33.625 26.9993C33.9897 26.9993 34.3394 27.1442 34.5973 27.4021C34.8551 27.6599 35 28.0097 35 28.3743V31.3333C35 32.3058 34.6137 33.2384 33.9261 33.9261C33.2384 34.6137 32.3058 35 31.3333 35H28.3743C28.0097 35 27.6599 34.8551 27.4021 34.5973C27.1442 34.3394 26.9993 33.9897 26.9993 33.625C26.9993 33.2603 27.1442 32.9106 27.4021 32.6527C27.6599 32.3949 28.0097 32.25 28.3743 32.25H31.3333C31.5764 32.25 31.8096 32.1534 31.9815 31.9815C32.1534 31.8096 32.25 31.5764 32.25 31.3333V28.3743C32.25 28.0097 32.3949 27.6599 32.6527 27.4021C32.9106 27.1442 33.2603 26.9993 33.625 26.9993Z" fill="black"/>
</svg>
