<svg width="57" height="57" viewBox="0 0 57 57" fill="none" xmlns="http://www.w3.org/2000/svg">
<path fill-rule="evenodd" clip-rule="evenodd" d="M16.322 27.3674C15.4937 27.3833 14.8352 28.0677 14.8511 28.896C14.867 29.7242 15.5514 30.3828 16.3797 30.3668L26.7555 30.1673L26.5559 40.5428C26.54 41.371 27.1985 42.0554 28.0268 42.0713C28.8551 42.0872 29.5395 41.4287 29.5554 40.6004L29.7571 30.1096L40.2476 29.9079C41.0759 29.8919 41.7344 29.2076 41.7185 28.3793C41.7026 27.551 41.0182 26.8925 40.1899 26.9084L29.8149 27.1079L30.0144 16.7325C30.0303 15.9042 29.3718 15.2198 28.5435 15.2039C27.7152 15.188 27.0309 15.8465 27.0149 16.6748L26.8132 27.1657L16.322 27.3674Z" fill="black"/>
</svg>
