<svg width="32" height="32" viewBox="0 0 32 32" fill="none" xmlns="http://www.w3.org/2000/svg">
<path d="M16 20C18.2091 20 20 18.2091 20 16C20 13.7909 18.2091 12 16 12C13.7909 12 12 13.7909 12 16C12 18.2091 13.7909 20 16 20Z" stroke="black" stroke-width="2" stroke-linecap="round" stroke-linejoin="round"/>
<path d="M16.0007 26.6667C21.8917 26.6667 26.6673 21.8911 26.6673 16C26.6673 10.109 21.8917 5.33337 16.0007 5.33337C10.1096 5.33337 5.33398 10.109 5.33398 16C5.33398 21.8911 10.1096 26.6667 16.0007 26.6667Z" stroke="black" stroke-width="2" stroke-linecap="round" stroke-linejoin="round"/>
<path d="M2.66699 16H5.33366M16.0003 2.66669V5.33335V2.66669ZM16.0003 26.6667V29.3334V26.6667ZM26.667 16H29.3337H26.667Z" stroke="black" stroke-width="2" stroke-linecap="round" stroke-linejoin="round"/>
</svg>
